<svg width="25" height="24" viewBox="0 0 25 24" fill="none" xmlns="http://www.w3.org/2000/svg">
<path d="M12.3487 2.32699C12.5639 1.891 13.1856 1.891 13.4008 2.32699L16.1862 7.97087C16.2717 8.144 16.4368 8.264 16.6279 8.29176L22.8563 9.1968C23.3374 9.26671 23.5295 9.85799 23.1814 10.1974L18.6745 14.5905C18.5362 14.7253 18.4731 14.9194 18.5058 15.1097L19.5697 21.3129C19.6519 21.7921 19.1489 22.1576 18.7186 21.9313L13.1477 19.0026C12.9768 18.9127 12.7727 18.9127 12.6018 19.0026L7.03096 21.9313C6.60062 22.1576 6.09765 21.7921 6.17984 21.3129L7.24378 15.1097C7.27641 14.9194 7.21333 14.7253 7.07507 14.5905L2.56817 10.1974C2.22001 9.85799 2.41213 9.26671 2.89327 9.1968L9.12166 8.29176C9.31272 8.264 9.47788 8.144 9.56333 7.97087L12.3487 2.32699Z" fill="white" stroke="#FBBC05" stroke-width="3" stroke-linejoin="round"/>
</svg>
