<svg width="24" height="24" viewBox="0 0 24 24" fill="none" xmlns="http://www.w3.org/2000/svg">
<path d="M11.8887 2.32699C12.0939 1.891 12.6869 1.891 12.8921 2.32699L15.5488 7.97087C15.6303 8.144 15.7879 8.264 15.9701 8.29176L21.9107 9.1968C22.3696 9.26671 22.5529 9.85799 22.2208 10.1974L17.9221 14.5905C17.7903 14.7253 17.7301 14.9194 17.7612 15.1097L18.776 21.3129C18.8544 21.7921 18.3747 22.1576 17.9642 21.9313L12.6507 19.0026C12.4877 18.9127 12.293 18.9127 12.13 19.0026L6.81656 21.9313C6.4061 22.1576 5.92637 21.7921 6.00476 21.3129L7.01954 15.1097C7.05067 14.9194 6.9905 14.7253 6.85864 14.5905L2.55995 10.1974C2.22788 9.85799 2.41112 9.26671 2.87003 9.1968L8.81067 8.29176C8.9929 8.264 9.15043 8.144 9.23193 7.97087L11.8887 2.32699Z" fill="#FBBC05" stroke="#FBBC05" stroke-width="3" stroke-linejoin="round"/>
</svg>
